<svg xmlns="http://www.w3.org/2000/svg" width="129.328" height="18.516" viewBox="0 0 129.328 18.516">
  <g id="logo-2" transform="translate(-348.625 -516.727)">
    <path id="Path_3" data-name="Path 3" d="M4.969.438A4.184,4.184,0,0,1,1.9-.836,4.184,4.184,0,0,1,.625-3.906h.859A3.339,3.339,0,0,0,2.508-1.445,3.339,3.339,0,0,0,4.969-.422,3.355,3.355,0,0,0,7.43-1.445,3.339,3.339,0,0,0,8.453-3.906,2.962,2.962,0,0,0,7.406-6.242a5.688,5.688,0,0,0-1.062-.7q-.258-.141-.594-.3l-.609-.273a9.059,9.059,0,0,1-1.68-.9,1.67,1.67,0,0,1-.742-1.352A1.793,1.793,0,0,1,3.3-11.109,1.973,1.973,0,0,1,4.7-11.664a2.109,2.109,0,0,1,1.438.477,1.618,1.618,0,0,1,.3.336q.039.063.07.117a.3.3,0,0,0,.016.039l.008.008v.008l-.789.328-.008-.008-.008-.016q-.016-.023-.039-.055a.675.675,0,0,0-.164-.156A1.38,1.38,0,0,0,4.7-10.8a1.141,1.141,0,0,0-.766.289.939.939,0,0,0-.367.75.973.973,0,0,0,.516.75A9.524,9.524,0,0,0,5.492-8.3l.3.133.32.148q.359.172.648.328a6.448,6.448,0,0,1,1.242.844,3.768,3.768,0,0,1,1.3,2.938A4.184,4.184,0,0,1,8.039-.836,4.184,4.184,0,0,1,4.969.438ZM10.914,0h.859V-11.156h-.859ZM24.531-5.57A4.961,4.961,0,0,1,23.023-1.93,4.961,4.961,0,0,1,19.383-.422,4.961,4.961,0,0,1,15.742-1.93,4.961,4.961,0,0,1,14.234-5.57a4.961,4.961,0,0,1,1.508-3.641,4.961,4.961,0,0,1,3.641-1.508,4.961,4.961,0,0,1,3.641,1.508A4.961,4.961,0,0,1,24.531-5.57Zm0-3.078a5.978,5.978,0,0,0-2.148-2.117,5.846,5.846,0,0,0-3-.812,5.794,5.794,0,0,0-4.25,1.766A5.781,5.781,0,0,0,13.375-5.57a5.807,5.807,0,0,0,1.758,4.25A5.807,5.807,0,0,0,19.383.438,5.781,5.781,0,0,0,23.625-1.32a5.794,5.794,0,0,0,1.766-4.25v-8.7h-.859Zm3.352,2.523a4.958,4.958,0,0,1,1.664-3.266A4.982,4.982,0,0,1,33-10.719a5,5,0,0,1,3.453,1.328,5,5,0,0,1,1.664,3.266ZM33-11.578a5.794,5.794,0,0,0-4.25,1.766A5.781,5.781,0,0,0,26.992-5.57,5.781,5.781,0,0,0,28.75-1.328,5.794,5.794,0,0,0,33,.438,5.8,5.8,0,0,0,36.469-.68a5.914,5.914,0,0,0,2.156-2.836h-.914a5.061,5.061,0,0,1-1.859,2.227A5.023,5.023,0,0,1,33-.422a4.986,4.986,0,0,1-3.539-1.406,4.985,4.985,0,0,1-1.594-3.437H38.992L39-5.414l.008-.156q0-.234-.031-.555a5.8,5.8,0,0,0-1.922-3.867A5.782,5.782,0,0,0,33-11.578ZM41.469-.859V-6.406H46.25a2.672,2.672,0,0,1,1.961.813,2.672,2.672,0,0,1,.813,1.961,2.672,2.672,0,0,1-.812,1.961,2.672,2.672,0,0,1-1.961.813Zm0-9.453h4.445a1.459,1.459,0,0,1,1.07.445A1.463,1.463,0,0,1,47.422-8.8a1.508,1.508,0,0,1-.437,1.086,1.447,1.447,0,0,1-1.07.453H41.469ZM47.508-7.2l.172-.164a2.158,2.158,0,0,0,.3-.359,1.876,1.876,0,0,0,.3-1.078,2.27,2.27,0,0,0-.7-1.664,2.267,2.267,0,0,0-1.664-.687h-5.3V0H46.25a3.492,3.492,0,0,0,2.563-1.062,3.505,3.505,0,0,0,1.07-2.57,3.326,3.326,0,0,0-.758-2.18,4.029,4.029,0,0,0-1.8-1.234ZM62.055-5.57A4.961,4.961,0,0,1,60.547-1.93,4.961,4.961,0,0,1,56.906-.422,4.961,4.961,0,0,1,53.266-1.93,4.961,4.961,0,0,1,51.758-5.57a4.961,4.961,0,0,1,1.508-3.641,4.961,4.961,0,0,1,3.641-1.508,4.961,4.961,0,0,1,3.641,1.508A4.961,4.961,0,0,1,62.055-5.57Zm0,5.578h.859V-5.57a5.768,5.768,0,0,0-1.766-4.242,5.768,5.768,0,0,0-4.242-1.766,5.794,5.794,0,0,0-4.25,1.766A5.781,5.781,0,0,0,50.9-5.57a5.807,5.807,0,0,0,1.758,4.25A5.807,5.807,0,0,0,56.906.438a5.889,5.889,0,0,0,3-.8,6.042,6.042,0,0,0,2.148-2.125Zm7.953-11.594a4.952,4.952,0,0,0-3.633,1.508,4.952,4.952,0,0,0-1.508,3.633V0h.859V-6.445a4.131,4.131,0,0,1,1.258-3.031,4.106,4.106,0,0,1,3.023-1.258,4.243,4.243,0,0,1,1.32.211v-.891A5.132,5.132,0,0,0,70.008-11.586Z" transform="translate(348 531)"/>
    <path id="Path_4" data-name="Path 4" d="M.977-11.172V0H9.828V-.859H1.836V-11.172Zm15.445.453a4.961,4.961,0,0,0-3.641,1.508A4.961,4.961,0,0,0,11.273-5.57,4.961,4.961,0,0,0,12.781-1.93,4.961,4.961,0,0,0,16.422-.422,4.961,4.961,0,0,0,20.063-1.93,4.961,4.961,0,0,0,21.57-5.57a4.961,4.961,0,0,0-1.508-3.641A4.961,4.961,0,0,0,16.422-10.719Zm0,11.156a5.794,5.794,0,0,1-4.25-1.766A5.781,5.781,0,0,1,10.414-5.57a5.781,5.781,0,0,1,1.758-4.242,5.794,5.794,0,0,1,4.25-1.766,5.768,5.768,0,0,1,4.242,1.766A5.768,5.768,0,0,1,22.43-5.57a5.768,5.768,0,0,1-1.766,4.242A5.768,5.768,0,0,1,16.422.438Zm9.625-2.375a4.977,4.977,0,0,1-1.508-3.641,4.961,4.961,0,0,1,1.508-3.641,4.948,4.948,0,0,1,3.641-1.516,4.955,4.955,0,0,1,3.594,1.469,4.972,4.972,0,0,1,1.547,3.547v.273A4.972,4.972,0,0,1,33.281-1.9,4.955,4.955,0,0,1,29.688-.43,4.961,4.961,0,0,1,26.047-1.937Zm9.641-3.828A5.521,5.521,0,0,0,33.906-9.9a5.893,5.893,0,0,0-4.219-1.687,5.807,5.807,0,0,0-4.25,1.758,5.807,5.807,0,0,0-1.758,4.25,5.781,5.781,0,0,0,1.758,4.242A5.794,5.794,0,0,0,29.688.43,5.8,5.8,0,0,0,32.68-.383a5.916,5.916,0,0,0,2.148-2.109v.813A4.918,4.918,0,0,1,33.32,1.883,4.987,4.987,0,0,1,29.68,3.375a4.987,4.987,0,0,1-3.641-1.492,6.408,6.408,0,0,1-.594-.711l-.68.531a5.742,5.742,0,0,0,.664.773,5.777,5.777,0,0,0,4.25,1.766,5.768,5.768,0,0,0,4.242-1.766,5.729,5.729,0,0,0,1.766-4.125Zm7.258-4.953A4.961,4.961,0,0,0,39.3-9.211,4.961,4.961,0,0,0,37.8-5.57,4.961,4.961,0,0,0,39.3-1.93,4.961,4.961,0,0,0,42.945-.422,4.961,4.961,0,0,0,46.586-1.93,4.961,4.961,0,0,0,48.094-5.57a4.961,4.961,0,0,0-1.508-3.641A4.961,4.961,0,0,0,42.945-10.719Zm0,11.156A5.794,5.794,0,0,1,38.7-1.328,5.781,5.781,0,0,1,36.938-5.57,5.781,5.781,0,0,1,38.7-9.812a5.794,5.794,0,0,1,4.25-1.766,5.768,5.768,0,0,1,4.242,1.766A5.768,5.768,0,0,1,48.953-5.57a5.768,5.768,0,0,1-1.766,4.242A5.768,5.768,0,0,1,42.945.438Z" transform="translate(429 531)" fill="#49a6e9"/>
  </g>
</svg>
